# xmcd
#
# Track frame offsets: 
#        150
#        12498
#        30504
#        48808
#        69503
#        83767
#        100373
#        111857
#        125871
#        142426
#        157930
#
# Disc length: 2433 seconds
#
# Revision: 1
# Processed by: cddbd v1.5.2PL0 Copyright (c) Steve Scherf et al.
# Submitted via: ExactAudioCopy v0.95b3
#
DISCID=95097f0b
DTITLE=The Oak Ridge Boys - The Journey
DYEAR=2004
DGENRE=Country
TTITLE0=Train, Train
TTITLE1=Someplace Green
TTITLE2=Bad Case Of Missing You
TTITLE3=Saving Grace
TTITLE4=You Don't Have To Go Home (But You Can't Stay Here)
TTITLE5=Old Familiar Love
TTITLE6=Goin' Against The Grain
TTITLE7=I Love You So Much It Hurts
TTITLE8=My Girl Friday
TTITLE9=That Ole Gravel Road Was Easy Street
TTITLE10=The Journey
EXTD=YEAR: 2004 ID3G: 2
EXTT0=
EXTT1=
EXTT2=
EXTT3=
EXTT4=
EXTT5=
EXTT6=
EXTT7=
EXTT8=
EXTT9=
EXTT10=
PLAYORDER=
